<?xml version="1.0" encoding="utf-8"?>
<!-- Generator: Adobe Illustrator 16.0.0, SVG Export Plug-In . SVG Version: 6.00 Build 0)  -->
<!DOCTYPE svg PUBLIC "-//W3C//DTD SVG 1.1//EN" "http://www.w3.org/Graphics/SVG/1.1/DTD/svg11.dtd">
<svg version="1.1" id="Layer_1" xmlns="http://www.w3.org/2000/svg" xmlns:xlink="http://www.w3.org/1999/xlink" x="0px" y="0px"
	 width="500px" height="500px" viewBox="0 0 500 500" enable-background="new 0 0 500 500" xml:space="preserve">
<g>
	<g>
		<path fill="#666666" d="M480.469,343.75c10.787,0,19.531-8.744,19.531-19.531V117.188c0-43.078-35.047-78.125-78.125-78.125
			h-25.391V19.531C396.484,8.744,387.74,0,376.953,0s-19.531,8.744-19.531,19.531v19.531h-88.867V19.531
			C268.555,8.744,259.811,0,249.023,0c-10.788,0-19.531,8.744-19.531,19.531v19.531h-87.891V19.531
			C141.602,8.744,132.857,0,122.07,0c-10.787,0-19.531,8.744-19.531,19.531v19.531H78.125C35.047,39.062,0,74.109,0,117.188v304.688
			C0,464.953,35.047,500,78.125,500h343.75C464.953,500,500,464.953,500,421.875c0-10.787-8.744-19.531-19.531-19.531
			s-19.531,8.744-19.531,19.531c0,21.539-17.522,39.062-39.062,39.062H78.125c-21.539,0-39.062-17.523-39.062-39.062V117.188
			c0-21.539,17.523-39.062,39.062-39.062h24.414v19.531c0,10.787,8.744,19.531,19.531,19.531c10.787,0,19.531-8.744,19.531-19.531
			V78.125h87.891v19.531c0,10.787,8.744,19.531,19.531,19.531c10.788,0,19.532-8.744,19.532-19.531V78.125h88.866v19.531
			c0,10.787,8.744,19.531,19.531,19.531s19.531-8.744,19.531-19.531V78.125h25.391c21.539,0,39.062,17.523,39.062,39.062v207.031
			C460.938,335.006,469.682,343.75,480.469,343.75z"/>
	</g>
</g>
<path fill="#FF9900" d="M386.899,253.609c-5.164-15.891-19.248-26.158-35.881-26.158h-49.829l-15.293-47.375
	c-5.148-15.843-19.238-26.08-35.896-26.08c-16.659,0-30.751,10.244-35.908,26.116l-15.282,47.339h-49.831
	c-16.633,0-30.717,10.268-35.88,26.158c-5.179,15.937,0.197,32.57,13.695,42.375l40.249,29.244l-15.374,47.314
	c-5.148,15.843,0.234,32.407,13.711,42.198c6.581,4.781,14.252,7.309,22.184,7.309c7.934,0,15.605-2.526,22.185-7.309L250,385.5
	l40.249,29.242c6.581,4.781,14.252,7.309,22.186,7.309c7.935,0,15.604-2.526,22.185-7.308c13.479-9.791,18.859-26.354,13.712-42.198
	l-7.549-21.163c-2.694-8.294-10.361-13.866-19.079-13.866c-2.104,0-4.19,0.332-6.201,0.984c-5.097,1.656-9.243,5.198-11.676,9.973
	c-2.434,4.775-2.861,10.213-1.205,15.309l5.283,14.191l-35.719-25.951c-6.506-4.727-14.178-7.225-22.186-7.225
	s-15.679,2.498-22.184,7.225l-35.72,25.951l13.644-41.99c5.069-15.599-0.44-32.557-13.71-42.197l-36.073-26.208h44.505
	c16.451,0,30.879-10.384,35.908-25.857l13.631-42.227l13.644,42.263c5.02,15.444,19.444,25.821,35.896,25.821h44.504l-11.104,7.899
	c-8.949,6.504-10.939,19.074-4.438,28.023c3.763,5.178,9.833,8.27,16.238,8.27c0.001,0,0.001,0,0.001,0
	c4.258,0,8.332-1.324,11.784-3.832l16.682-11.951C386.702,286.18,392.077,269.546,386.899,253.609z"/>
</svg>
